<mxfile host="app.diagrams.net" modified="2023-11-10T05:40:05.834Z" agent="Mozilla/5.0 (Macintosh; Intel Mac OS X 10_15_7) AppleWebKit/537.36 (KHTML, like Gecko) Chrome/119.0.0.0 Safari/537.36" etag="DG_yrqtWVyZTR4AYuj7x" version="22.0.0" type="device">
  <diagram name="PÃ¡gina-1" id="lztVKDjlMog7FwmTMyFA">
    <mxGraphModel dx="166" dy="1276" grid="1" gridSize="10" guides="1" tooltips="1" connect="1" arrows="1" fold="1" page="1" pageScale="1" pageWidth="827" pageHeight="1169" math="1" shadow="0">
      <root>
        <mxCell id="0" />
        <mxCell id="1" parent="0" />
        <mxCell id="ynmK2xIxyoW6f5YjaeQI-4" value="&lt;font style=&quot;font-size: 15px;&quot;&gt;000...00&lt;/font&gt;" style="rounded=0;whiteSpace=wrap;html=1;" vertex="1" parent="1">
          <mxGeometry x="50" y="90" width="230" height="40" as="geometry" />
        </mxCell>
        <mxCell id="ynmK2xIxyoW6f5YjaeQI-5" value="&lt;font style=&quot;font-size: 15px;&quot;&gt;0000...00&lt;/font&gt;" style="rounded=0;whiteSpace=wrap;html=1;" vertex="1" parent="1">
          <mxGeometry x="550" y="90" width="210" height="40" as="geometry" />
        </mxCell>
        <mxCell id="ynmK2xIxyoW6f5YjaeQI-6" value="&lt;font style=&quot;font-size: 15px;&quot;&gt;0&lt;br&gt;&lt;/font&gt;" style="text;html=1;strokeColor=none;fillColor=none;align=center;verticalAlign=middle;whiteSpace=wrap;rounded=0;" vertex="1" parent="1">
          <mxGeometry x="730" y="140" width="60" height="30" as="geometry" />
        </mxCell>
        <mxCell id="ynmK2xIxyoW6f5YjaeQI-7" value="" style="verticalLabelPosition=bottom;shadow=0;dashed=0;align=center;html=1;verticalAlign=top;strokeWidth=1;shape=mxgraph.mockup.markup.curlyBrace;whiteSpace=wrap;strokeColor=#999999;" vertex="1" parent="1">
          <mxGeometry x="550" y="70" width="210" height="20" as="geometry" />
        </mxCell>
        <mxCell id="ynmK2xIxyoW6f5YjaeQI-9" value="&lt;font style=&quot;font-size: 15px;&quot;&gt;$$Ex-Ey$$&lt;/font&gt;" style="text;html=1;strokeColor=none;fillColor=none;align=center;verticalAlign=middle;whiteSpace=wrap;rounded=0;" vertex="1" parent="1">
          <mxGeometry x="625" y="40" width="60" height="30" as="geometry" />
        </mxCell>
        <mxCell id="ynmK2xIxyoW6f5YjaeQI-10" value="" style="verticalLabelPosition=bottom;shadow=0;dashed=0;align=center;html=1;verticalAlign=top;strokeWidth=1;shape=mxgraph.mockup.markup.curlyBrace;whiteSpace=wrap;strokeColor=#999999;" vertex="1" parent="1">
          <mxGeometry x="320" y="70" width="230" height="20" as="geometry" />
        </mxCell>
        <mxCell id="ynmK2xIxyoW6f5YjaeQI-11" value="&lt;font style=&quot;font-size: 15px;&quot;&gt;$$Nf$$&lt;/font&gt;" style="text;html=1;strokeColor=none;fillColor=none;align=center;verticalAlign=middle;whiteSpace=wrap;rounded=0;" vertex="1" parent="1">
          <mxGeometry x="405" y="40" width="60" height="30" as="geometry" />
        </mxCell>
        <mxCell id="ynmK2xIxyoW6f5YjaeQI-12" value="" style="rounded=0;whiteSpace=wrap;html=1;" vertex="1" parent="1">
          <mxGeometry x="320" y="90" width="230" height="40" as="geometry" />
        </mxCell>
        <mxCell id="ynmK2xIxyoW6f5YjaeQI-13" value="&lt;font style=&quot;font-size: 15px;&quot;&gt;1&lt;/font&gt;" style="rounded=0;whiteSpace=wrap;html=1;" vertex="1" parent="1">
          <mxGeometry x="280" y="90" width="40" height="40" as="geometry" />
        </mxCell>
        <mxCell id="ynmK2xIxyoW6f5YjaeQI-15" value="&lt;font style=&quot;font-size: 15px;&quot;&gt;Mx*&lt;br&gt;&lt;/font&gt;" style="text;html=1;strokeColor=none;fillColor=none;align=center;verticalAlign=middle;whiteSpace=wrap;rounded=0;" vertex="1" parent="1">
          <mxGeometry y="90" width="60" height="30" as="geometry" />
        </mxCell>
        <mxCell id="ynmK2xIxyoW6f5YjaeQI-16" value="&lt;font style=&quot;font-size: 15px;&quot;&gt;My*&lt;br&gt;&lt;/font&gt;" style="text;html=1;strokeColor=none;fillColor=none;align=center;verticalAlign=middle;whiteSpace=wrap;rounded=0;" vertex="1" parent="1">
          <mxGeometry y="190" width="60" height="30" as="geometry" />
        </mxCell>
        <mxCell id="ynmK2xIxyoW6f5YjaeQI-17" value="&lt;font style=&quot;font-size: 15px;&quot;&gt;0000...000&lt;/font&gt;" style="rounded=0;whiteSpace=wrap;html=1;" vertex="1" parent="1">
          <mxGeometry x="50" y="180" width="460" height="40" as="geometry" />
        </mxCell>
        <mxCell id="ynmK2xIxyoW6f5YjaeQI-18" value="" style="rounded=0;whiteSpace=wrap;html=1;" vertex="1" parent="1">
          <mxGeometry x="550" y="180" width="210" height="40" as="geometry" />
        </mxCell>
        <mxCell id="ynmK2xIxyoW6f5YjaeQI-19" value="&lt;font style=&quot;font-size: 15px;&quot;&gt;0&lt;br&gt;&lt;/font&gt;" style="text;html=1;strokeColor=none;fillColor=none;align=center;verticalAlign=middle;whiteSpace=wrap;rounded=0;" vertex="1" parent="1">
          <mxGeometry x="730" y="230" width="60" height="30" as="geometry" />
        </mxCell>
        <mxCell id="ynmK2xIxyoW6f5YjaeQI-22" value="&lt;font style=&quot;font-size: 15px;&quot;&gt;Fx&lt;/font&gt;" style="text;html=1;strokeColor=none;fillColor=none;align=center;verticalAlign=middle;whiteSpace=wrap;rounded=0;" vertex="1" parent="1">
          <mxGeometry x="405" y="95" width="60" height="30" as="geometry" />
        </mxCell>
        <mxCell id="ynmK2xIxyoW6f5YjaeQI-23" value="&lt;font style=&quot;font-size: 15px;&quot;&gt;Fx&lt;br&gt;&lt;/font&gt;" style="text;html=1;strokeColor=none;fillColor=none;align=center;verticalAlign=middle;whiteSpace=wrap;rounded=0;" vertex="1" parent="1">
          <mxGeometry x="625" y="185" width="60" height="30" as="geometry" />
        </mxCell>
        <mxCell id="ynmK2xIxyoW6f5YjaeQI-24" value="&lt;font style=&quot;font-size: 15px;&quot;&gt;1&lt;/font&gt;" style="rounded=0;whiteSpace=wrap;html=1;" vertex="1" parent="1">
          <mxGeometry x="510" y="180" width="40" height="40" as="geometry" />
        </mxCell>
        <mxCell id="ynmK2xIxyoW6f5YjaeQI-26" value="" style="endArrow=classic;html=1;rounded=0;" edge="1" parent="1">
          <mxGeometry width="50" height="50" relative="1" as="geometry">
            <mxPoint x="300" y="40" as="sourcePoint" />
            <mxPoint x="299.52" y="80" as="targetPoint" />
          </mxGeometry>
        </mxCell>
        <mxCell id="ynmK2xIxyoW6f5YjaeQI-27" value="&lt;font style=&quot;font-size: 15px;&quot;&gt;$$Nf + (Ex - Ey) $$&lt;/font&gt;" style="text;html=1;align=center;verticalAlign=middle;resizable=0;points=[];autosize=1;strokeColor=none;fillColor=none;" vertex="1" parent="1">
          <mxGeometry x="225" y="8" width="150" height="30" as="geometry" />
        </mxCell>
        <mxCell id="ynmK2xIxyoW6f5YjaeQI-28" value="&lt;font style=&quot;font-size: 15px;&quot;&gt;$$1$$&lt;/font&gt;" style="rounded=0;whiteSpace=wrap;html=1;" vertex="1" parent="1">
          <mxGeometry x="320" y="280" width="40" height="40" as="geometry" />
        </mxCell>
        <mxCell id="ynmK2xIxyoW6f5YjaeQI-29" value="&lt;font style=&quot;font-size: 15px;&quot;&gt;0000...0000&lt;/font&gt;" style="rounded=0;whiteSpace=wrap;html=1;" vertex="1" parent="1">
          <mxGeometry x="50" y="280" width="270" height="40" as="geometry" />
        </mxCell>
        <mxCell id="ynmK2xIxyoW6f5YjaeQI-30" value="&lt;font style=&quot;font-size: 15px;&quot;&gt;Mz*&lt;br&gt;&lt;/font&gt;" style="text;html=1;strokeColor=none;fillColor=none;align=center;verticalAlign=middle;whiteSpace=wrap;rounded=0;" vertex="1" parent="1">
          <mxGeometry y="285" width="60" height="30" as="geometry" />
        </mxCell>
        <mxCell id="ynmK2xIxyoW6f5YjaeQI-31" value="&lt;font style=&quot;font-size: 15px;&quot;&gt;Fz&lt;/font&gt;" style="rounded=0;whiteSpace=wrap;html=1;" vertex="1" parent="1">
          <mxGeometry x="360" y="280" width="230" height="40" as="geometry" />
        </mxCell>
        <mxCell id="ynmK2xIxyoW6f5YjaeQI-32" value="&lt;font style=&quot;font-size: 15px;&quot;&gt;$$Nf$$&lt;/font&gt;" style="text;html=1;strokeColor=none;fillColor=none;align=center;verticalAlign=middle;whiteSpace=wrap;rounded=0;" vertex="1" parent="1">
          <mxGeometry x="440" y="340" width="60" height="30" as="geometry" />
        </mxCell>
        <mxCell id="ynmK2xIxyoW6f5YjaeQI-33" value="" style="verticalLabelPosition=bottom;shadow=0;dashed=0;align=center;html=1;verticalAlign=top;strokeWidth=1;shape=mxgraph.mockup.markup.curlyBrace;whiteSpace=wrap;strokeColor=#999999;direction=west;" vertex="1" parent="1">
          <mxGeometry x="360" y="320" width="230" height="20" as="geometry" />
        </mxCell>
        <mxCell id="ynmK2xIxyoW6f5YjaeQI-34" value="" style="rounded=0;whiteSpace=wrap;html=1;" vertex="1" parent="1">
          <mxGeometry x="590" y="280" width="170" height="40" as="geometry" />
        </mxCell>
        <mxCell id="ynmK2xIxyoW6f5YjaeQI-35" value="&lt;span style=&quot;font-size: 15px;&quot;&gt;$$K$$&lt;/span&gt;" style="text;html=1;strokeColor=none;fillColor=none;align=center;verticalAlign=middle;whiteSpace=wrap;rounded=0;" vertex="1" parent="1">
          <mxGeometry x="311" y="226" width="60" height="30" as="geometry" />
        </mxCell>
        <mxCell id="ynmK2xIxyoW6f5YjaeQI-36" value="" style="endArrow=classic;html=1;rounded=0;" edge="1" parent="1">
          <mxGeometry width="50" height="50" relative="1" as="geometry">
            <mxPoint x="340" y="250" as="sourcePoint" />
            <mxPoint x="339.77" y="270" as="targetPoint" />
          </mxGeometry>
        </mxCell>
        <mxCell id="ynmK2xIxyoW6f5YjaeQI-43" value="" style="endArrow=classic;html=1;rounded=0;" edge="1" parent="1">
          <mxGeometry width="50" height="50" relative="1" as="geometry">
            <mxPoint x="340.12" y="250" as="sourcePoint" />
            <mxPoint x="339.89" y="270" as="targetPoint" />
          </mxGeometry>
        </mxCell>
        <mxCell id="ynmK2xIxyoW6f5YjaeQI-44" value="" style="endArrow=classic;html=1;rounded=0;" edge="1" parent="1">
          <mxGeometry width="50" height="50" relative="1" as="geometry">
            <mxPoint x="340" y="260" as="sourcePoint" />
            <mxPoint x="339.89" y="270" as="targetPoint" />
          </mxGeometry>
        </mxCell>
      </root>
    </mxGraphModel>
  </diagram>
</mxfile>
